# xmcd
#
# Track frame offsets: 
#        150
#        17527
#        33963
#        44790
#        68632
#        81011
#        100125
#        120640
#        134739
#        148920
#        168277
#        187709
#        203124
#        223592
#        240784
#        258376
#        278192
#        294852
#        310081
#        327859
#        346051
#
# Disc length: 4771 seconds
#
# Revision: 0
# Processed by: cddbd v1.5.2PL0 Copyright (c) Steve Scherf et al.
# Submitted via: ExactAudioCopy v0.99pb5
#
DISCID=2812a115
DTITLE=Kevin Fowler - Best of
DYEAR=1900
DGENRE=Country
TTITLE0=Kevin Fowler - 100% Texan
TTITLE1=Kevin Fowler - All the Tequila in Tijuana
TTITLE2=Kevin Fowler - Ball and Chain.mp3
TTITLE3=Kevin Fowler - Beer, Bait And Ammo
TTITLE4=Kevin Fowler - Butterbean
TTITLE5=Kevin Fowler - Drinkin' Days
TTITLE6=Kevin Fowler - Fat Bottomed Girls
TTITLE7=Kevin Fowler - Hellbent For A Heartache
TTITLE8=Kevin Fowler - I Found Out The Hard Way
TTITLE9=Kevin Fowler - If These Old Walls Could Talk
TTITLE10=Kevin Fowler - J.O.B.
TTITLE11=Kevin Fowler - Midnight Train (Thunderfoot)
TTITLE12=Kevin Fowler - Not Lovin Anymore
TTITLE13=Kevin Fowler - Ol' What's Her Name.mp3
TTITLE14=Kevin Fowler - One for the road
TTITLE15=Kevin Fowler - Penny For Your Thoughts
TTITLE16=Kevin Fowler - Read Between The Lines
TTITLE17=Kevin Fowler - Senorita Mas Fina
TTITLE18=Kevin Fowler - She Ain't Bad But She Ain't Yo
TTITLE19=Kevin Fowler - Speak Of The Devil
TTITLE20=Kevin Fowler - Tall Drink Of Water
EXTD=
EXTT0=
EXTT1=
EXTT2=
EXTT3=
EXTT4=
EXTT5=
EXTT6=
EXTT7=
EXTT8=
EXTT9=
EXTT10=
EXTT11=
EXTT12=
EXTT13=
EXTT14=
EXTT15=
EXTT16=
EXTT17=
EXTT18=
EXTT19=
EXTT20=
PLAYORDER=
